<svg xmlns:xlink="http://www.w3.org/1999/xlink" width="20" height="20" viewBox="0 0 20 20" fill="none" xmlns="http://www.w3.org/2000/svg" focusable="false"><path d="M3 6.5C3.55228 6.5 4 6.05228 4 5.5C4 4.94772 3.55228 4.5 3 4.5C2.44772 4.5 2 4.94772 2 5.5C2 6.05228 2.44772 6.5 3 6.5Z" fill="#292827"></path><path d="M6 5.5C6 5.22386 6.22386 5 6.5 5H17.5C17.7761 5 18 5.22386 18 5.5C18 5.77614 17.7761 6 17.5 6H6.5C6.22386 6 6 5.77614 6 5.5Z" fill="#292827"></path><path d="M6.5 10C6.22386 10 6 10.2239 6 10.5C6 10.7761 6.22386 11 6.5 11H11.2572C11.5705 10.6206 11.9338 10.2839 12.3369 10H6.5Z" fill="#292827"></path><path d="M6.5 15H10.0224C10.0534 15.3434 10.1159 15.6777 10.207 16H6.5C6.22386 16 6 15.7761 6 15.5C6 15.2239 6.22386 15 6.5 15Z" fill="#292827"></path><path d="M3 16.5C3.55228 16.5 4 16.0523 4 15.5C4 14.9477 3.55228 14.5 3 14.5C2.44772 14.5 2 14.9477 2 15.5C2 16.0523 2.44772 16.5 3 16.5Z" fill="#292827"></path><path d="M3 11.5C3.55228 11.5 4 11.0523 4 10.5C4 9.94772 3.55228 9.5 3 9.5C2.44772 9.5 2 9.94772 2 10.5C2 11.0523 2.44772 11.5 3 11.5Z" fill="#292827"></path><path fill-rule="evenodd" clip-rule="evenodd" d="M15.5 19C13.0147 19 11 16.9853 11 14.5C11 12.0147 13.0147 10 15.5 10C17.9853 10 20 12.0147 20 14.5C20 16.9853 17.9853 19 15.5 19ZM13.1468 14.146L15.1464 12.1464C15.3417 11.9512 15.6583 11.9512 15.8536 12.1464C16.0488 12.3417 16.0488 12.6583 15.8536 12.8536L14.7071 14H17.5C17.7761 14 18 14.2239 18 14.5C18 14.7761 17.7761 15 17.5 15H14.7071L15.8536 16.1464C16.0488 16.3417 16.0488 16.6583 15.8536 16.8536C15.6583 17.0488 15.3417 17.0488 15.1464 16.8536L13.1464 14.8536C13.0985 14.8056 13.0623 14.7504 13.0379 14.6914C13.0139 14.6333 13.0004 14.5697 13 14.503L13 14.5L13 14.497C13.0004 14.4303 13.0139 14.3667 13.0379 14.3086C13.062 14.2505 13.0974 14.196 13.1443 14.1486L13.1468 14.146Z" fill="#292827"></path></svg>